<?xml version="1.0" encoding="UTF-8" standalone="no"?>
<svg
   xmlns:dc="http://purl.org/dc/elements/1.1/"
   xmlns:cc="http://creativecommons.org/ns#"
   xmlns:rdf="http://www.w3.org/1999/02/22-rdf-syntax-ns#"
   xmlns:svg="http://www.w3.org/2000/svg"
   xmlns="http://www.w3.org/2000/svg"
   id="svg910"
   viewBox="0 0 48.15 48.15"
   style="shape-rendering:geometricPrecision; text-rendering:geometricPrecision; image-rendering:optimizeQuality; fill-rule:evenodd; clip-rule:evenodd"
   version="1.1"
   height="113px"
   width="113px"
   xml:space="preserve"><metadata
   id="metadata914"><rdf:RDF><cc:Work
       rdf:about=""><dc:format>image/svg+xml</dc:format><dc:type
         rdf:resource="http://purl.org/dc/dcmitype/StillImage" /><dc:title></dc:title></cc:Work></rdf:RDF></metadata>
 <defs
   id="defs841">
  <style
   id="style836"
   type="text/css">
   <![CDATA[
    .fil8 {fill:none}
    .fil2 {fill:#005DED}
    .fil5 {fill:#008369}
    .fil7 {fill:#336DCA}
    .fil0 {fill:#CCCCCC}
    .fil6 {fill:#F2F2F1}
    .fil4 {fill:#FDB03B}
    .fil3 {fill:#FE5D87}
    .fil1 {fill:#FFB03B}
   ]]>
  </style>
   <clipPath
   id="id0">
    <path
   id="path838"
   d="M0 0l48.15 0 0 48.15 -48.15 0 0 -48.15z" />
   </clipPath>
 </defs>
 <g
   id="Capa_x0020_1">
  <metadata
   id="CorelCorpID_0Corel-Layer" />
  <polygon
   id="polygon844"
   points="0,0 48.15,0 48.15,48.15 0,48.15 "
   class="fil0" />
  <g
   id="g905"
   clip-path="url(#id0)"
   style="clip-path:url(#id0)">
   <g
   id="_1440065296208">
    <g
   id="g902">
     <rect
   id="rect846"
   height="64.58"
   width="64.58"
   y="-2.23"
   x="-14.29"
   class="fil1" />
     <path
   id="path848"
   d="M9.63 13.27l-0.05 7.12 -6.94 -0.03c-0.99,1.71 -2.73,2.95 -4.17,4.37 -1.4,1.37 -2.77,3.15 -4.39,4.11l0.06 0.48c1.33,0.71 3.1,2.72 4.24,3.89 1.14,1.17 2.81,3.84 4.13,3.96 0.91,0.32 4.92,0.56 6.11,0.29 0.74,-0.16 0.27,0 0.66,-0.33l-7.79 -8.04c0.65,-1.22 7.04,-7.6 8.34,-8.45 1.33,-2.41 6.23,-5.92 8.04,-8.44 1.66,0.61 3.49,3.01 4.72,4.23 1.46,1.47 2.69,2.78 4.2,4.19l8.33 8.13c-0.51,1.07 -6.98,7.34 -8.15,8.31l-0.28 0.48 -8.27 8.45 -8.08 -7.93c-0.85,0.62 -0.39,6.26 -0.29,6.91 1.53,1.48 6.78,6.38 7.76,7.95l0.7 0.36c0.7,-1.37 4.6,-4.84 6.24,-6.46 0.75,-0.75 1.37,-1.56 2.21,-1.87l0.05 -7.25 6.92 0.04c2.79,-3.08 6.2,-5.73 8.55,-8.7l0.03 -0.13c-1.83,-1.04 -2.87,-2.67 -4.42,-4.41 -1.37,-1.53 -2.92,-2.61 -4.13,-4.18l-7.04 0.03 0.08 -7.07 -0.25 -0.18c-1.6,-0.84 -7.44,-7.26 -8.3,-8.3l-0.46 0.05 -8.36 8.42z"
   class="fil2" />
     <path
   id="path850"
   d="M12.34 23.15l11.66 -0.02c0.53,1.92 0.12,9.34 0.1,11.85l-1.25 0.06 -10.62 -0.11 0.11 -11.78zm-2.46 14.35l16.81 0.04 0.28 -0.48 -0.18 -16.44 -16.96 0.02 0.05 16.86z"
   class="fil3" />
     <path
   id="path852"
   d="M21.25 25.84l0.19 6.83 -6.9 -0.12c-0.24,-1.65 -0.37,-5.33 0.05,-6.87 1.23,-0.13 5.75,-0.34 6.66,0.16zm-9.02 9.09l10.62 0.11 1.25 -0.06c0.02,-2.51 0.43,-9.93 -0.1,-11.85l-11.66 0.02 -0.11 11.78z"
   class="fil2" />
     <path
   id="path854"
   d="M10.34 38.06l8.08 7.93 8.27 -8.45 -16.81 -0.04c0.7,0.46 0.17,0.06 0.46,0.56z"
   class="fil4" />
     <path
   id="path856"
   d="M26.12 52.98c-3.04,0.46 -2.68,-2.01 -1.52,-2.48 1.87,-0.76 2.17,1.16 1.52,2.48zm-7.61 0.3l12.36 3.93c-0.42,-1.78 -3.17,-11.21 -3.91,-12.26 -0.84,0.31 -1.46,1.12 -2.21,1.87 -1.64,1.62 -5.54,5.09 -6.24,6.46z"
   class="fil3" />
     <path
   id="path858"
   d="M-3.36 23.19c-2.83,0.42 -2.49,-2.05 -1.49,-2.49 1.99,-0.9 2.55,1 1.49,2.49zm-2.56 5.65c1.62,-0.96 2.99,-2.74 4.39,-4.11 1.44,-1.42 3.18,-2.66 4.17,-4.37l-12.45 -3.94 3.89 12.42z"
   class="fil3" />
     <path
   id="path860"
   d="M39.29 23.31c-0.79,-2.44 1.07,-3.04 2.05,-2.06 1.23,1.22 -0.02,2.74 -2.05,2.06zm-4.85 -3.24l-0.48 0.25c1.21,1.57 2.76,2.65 4.13,4.18 1.55,1.74 2.59,3.37 4.42,4.41l3.78 -12.34c-2.77,0.04 -8.64,3.2 -11.85,3.5z"
   class="fil3" />
     <path
   id="path862"
   d="M41.56 34.96c0.45,0.83 0.73,3.35 -1.48,2.45 -0.92,-0.38 -1.71,-3 1.48,-2.45zm-7.63 2.78l12.57 3.78 -4.02 -12.48c-2.35,2.97 -5.76,5.62 -8.55,8.7z"
   class="fil3" />
     <path
   id="path864"
   d="M11.01 5.19c1.71,-0.92 2.62,1.57 1.27,2.37 -0.8,0.47 -1.72,0.1 -2,-0.52 -0.6,-1.34 0.19,-1.56 0.73,-1.85zm-1.38 8.08l8.36 -8.42 -12.16 -4.11c0.15,1.6 3.21,11.32 3.8,12.53z"
   class="fil3" />
     <path
   id="path866"
   d="M-2.99 36.83c-0.6,0.61 -1.36,0.62 -1.95,0.03 -0.93,-0.91 -0.35,-1.38 0.12,-1.85 1.5,-1.47 2.93,0.71 1.83,1.82zm5.62 0.9l-0.12 -0.56c-1.32,-0.12 -2.99,-2.79 -4.13,-3.96 -1.14,-1.17 -2.91,-3.18 -4.24,-3.89l-3.74 12.4 12.23 -3.99z"
   class="fil3" />
     <path
   id="path868"
   d="M12.49 52.91c-2.94,0.41 -2.44,-2.06 -1.51,-2.48 1.97,-0.89 2.49,1.01 1.51,2.48zm-3.11 -7.27l-3.44 11.21c2.01,-0.42 3.98,-1.17 6.02,-1.83 1.6,-0.52 4.83,-1.28 5.85,-2.1 -0.98,-1.57 -6.23,-6.47 -7.76,-7.95l-0.37 -0.02 -0.3 0.69z"
   class="fil3" />
     <path
   id="path870"
   d="M23.6 7.36c-0.95,-3.17 3.24,-3.31 2.23,0.19 -0.88,0.27 -1.49,0.22 -2.23,-0.19zm-5.15 -2.56c0.86,1.04 6.7,7.46 8.3,8.3l3.83 -12.1 -12.13 3.8z"
   class="fil3" />
     <path
   id="path872"
   d="M27 13.28l-0.08 7.07 7.04 -0.03 0.48 -0.25c-0.78,-1.36 -0.27,-5.31 -0.25,-7.15l-7.19 0.36z"
   class="fil4" />
     <path
   id="path874"
   d="M5.88 44.93l3.8 0.02 -0.08 -7.13 -6.89 -0.11c0.56,2.28 0.09,4.96 0.04,7.31l3.13 -0.09z"
   class="fil4" />
     <path
   id="path876"
   d="M27 13.28l7.19 -0.36c-0.02,1.84 -0.53,5.79 0.25,7.15 0.4,-0.93 0.67,-1.08 1.44,-1.85 0.59,-0.57 1.14,-0.93 1.32,-1.79 0.24,-1.2 0.1,-5.21 0.13,-6.7 -1.94,0.07 -4.59,0.01 -6.44,0.21 -1.51,0.17 -1.45,0.46 -2.27,1.35 -0.73,0.79 -1,1 -1.62,1.99z"
   class="fil5" />
     <path
   id="path878"
   d="M6.12 10.04c-2.31,0.09 -4.96,-0.48 -7.15,0.08 0.12,4.24 -0.94,7.69 3.35,9.69l-0.2 -6.87 6.93 0.11c-0.55,-1.22 -1.81,-2.44 -2.93,-3.01z"
   class="fil5" />
     <path
   id="path880"
   d="M37.7 48.16l-0.06 -1.73c0.19,-4.96 0.25,-5.75 -3.44,-8.38 0.08,2.09 0.63,5.08 0.19,7.03l-6.73 0.08c2.6,4.29 5.69,2.78 10.04,3z"
   class="fil5" />
     <path
   id="path882"
   d="M37.33 9.73c6.45,-0.25 7,0.76 9.99,-3.27l-6.88 0.14 0.13 -6.96c-4.33,2.64 -3.02,4.57 -3.24,10.09z"
   class="fil2" />
     <path
   id="path884"
   d="M-0.46 48.57l-1.37 -0.07c-1.17,-0.04 -4.88,-0.11 -5.8,0.21 -0.92,0.31 -2.44,2.09 -2.89,3.03l6.96 -0.22 -0.07 6.94c3.8,-2.77 3.06,-3.76 3.17,-9.89z"
   class="fil2" />
     <path
   id="path886"
   d="M-0.35 43.39l-0.02 4.85 3.01 -0.08c5.72,0.39 3.94,-0.6 6.74,-2.52l0.3 -0.69 -3.8 -0.02c-0.96,0.38 -2.05,0.41 -3.33,0.27 -0.12,-1.2 -0.06,-2.31 -0.02,-3.51 0.14,-4.52 0.26,-2.9 -0.51,-3.23 -0.54,1.2 -1.51,1.56 -2.45,2.44l0.08 2.49z"
   class="fil5" />
     <path
   id="path888"
   d="M-4.28 4.33l-0.02 2.57 -6.98 -0.09c0.75,0.74 2.5,2.77 3.27,3.01 1.24,0.39 5.03,0.07 6.79,0.34l-0.04 -3.35c0.08,-6.59 -1.49,-3.79 -2.41,-6.52 -0.95,0.61 -0.45,-0.27 -0.72,1.01 0,0.03 0.06,0.87 0.07,0.98 0.04,0.83 0.08,1.2 0.04,2.05z"
   class="fil2" />
     <path
   id="path890"
   d="M45.46 48.23l-7.48 -0.09c0.44,9.34 -0.15,6.16 3.59,9.88l-0.36 -7 7.02 -0.1c-0.36,-0.38 -2.25,-2.35 -2.77,-2.69z"
   class="fil2" />
     <path
   id="path892"
   d="M-6.14 5.54c0.85,-1.81 -0.23,-3.4 -1.76,-2.38 -1.22,0.81 -0.84,2.85 1.76,2.38z"
   class="fil6" />
     <path
   id="path894"
   d="M43.15 54.91c3.22,0.42 2.41,-2.09 1.53,-2.48 -2.25,-1.01 -2.01,1.63 -1.53,2.48z"
   class="fil5" />
     <path
   id="path896"
   d="M42.29 5.12c2.21,0.61 2.59,-0.57 2.02,-2.31 -2.05,-0.46 -3.08,0.33 -2.02,2.31z"
   class="fil5" />
     <path
   id="path898"
   d="M-7.62 53.2c-1.02,3.45 3.14,3.35 2.26,0.22 -0.75,-0.43 -1.36,-0.49 -2.26,-0.22z"
   class="fil5" />
     <path
   id="path900"
   d="M2.51 37.17l0.12 0.56 0.08 -0.02 6.89 0.11 0.08 7.13 0.37 0.02c-0.1,-0.65 -0.56,-6.29 0.29,-6.91 -0.29,-0.5 0.24,-0.1 -0.46,-0.56l-0.6 -0.37c-0.39,0.33 0.08,0.17 -0.66,0.33 -1.19,0.27 -5.2,0.03 -6.11,-0.29z"
   class="fil7" />
    </g>
   </g>
  </g>
  <polygon
   id="polygon907"
   points="0,0 48.15,0 48.15,48.15 0,48.15 "
   class="fil8" />
 </g>
</svg>
