<?xml version="1.0" encoding="UTF-8" standalone="no"?>
<svg
   xmlns:dc="http://purl.org/dc/elements/1.1/"
   xmlns:cc="http://creativecommons.org/ns#"
   xmlns:rdf="http://www.w3.org/1999/02/22-rdf-syntax-ns#"
   xmlns:svg="http://www.w3.org/2000/svg"
   xmlns="http://www.w3.org/2000/svg"
   id="svg362"
   viewBox="0 0 52.6 52.6"
   style="shape-rendering:geometricPrecision; text-rendering:geometricPrecision; image-rendering:optimizeQuality; fill-rule:evenodd; clip-rule:evenodd"
   version="1.1"
   height="113px"
   width="113px"
   xml:space="preserve"><metadata
   id="metadata366"><rdf:RDF><cc:Work
       rdf:about=""><dc:format>image/svg+xml</dc:format><dc:type
         rdf:resource="http://purl.org/dc/dcmitype/StillImage" /><dc:title></dc:title></cc:Work></rdf:RDF></metadata>
 <defs
   id="defs287">
  <style
   id="style282"
   type="text/css">
   <![CDATA[
    .fil6 {fill:none}
    .fil5 {fill:#61E49E}
    .fil2 {fill:#B86CE5}
    .fil0 {fill:#CCCCCC}
    .fil1 {fill:#D5E68E}
    .fil4 {fill:#E478C4}
    .fil3 {fill:#E58C84}
   ]]>
  </style>
   <clipPath
   id="id0">
    <path
   id="path284"
   d="M0 0l52.6 0 0 52.6 -52.6 0 0 -52.6z" />
   </clipPath>
 </defs>
 <g
   id="Capa_x0020_1">
  <metadata
   id="CorelCorpID_0Corel-Layer" />
  <polygon
   id="polygon290"
   points="0,0 52.6,0 52.6,52.6 0,52.6 "
   class="fil0" />
  <g
   style="clip-path:url(#id0)"
   id="g357"
   clip-path="url(#id0)">
   <g
   id="_1439926760736">
    <rect
   id="rect292"
   height="57.39"
   width="57.39"
   y="-2.4"
   x="-2.4"
   class="fil1" />
    <path
   id="path294"
   d="M11.73 36.32c1.69,-2.22 4.95,-5.33 7.16,-7.39l1.7 -2.01c0.46,-0.75 -0.04,-0.25 0.55,-0.84l1.98 1.01 2.83 0.86 0.89 0.1c1.75,0.16 3.43,0.23 5.06,-0.26l2.15 -0.55c1.44,0.98 3.73,3.43 5.18,4.79l5.06 5.13 0.88 0.7c0.03,0.9 0.21,0.18 -0.24,0.67l-15.01 15.05 -1.07 1.12c-1.39,0.27 -0.16,0.11 -0.56,-0.17 -1.5,-0.83 -6.96,-6.73 -8.63,-8.4 -1.7,-1.7 -7.42,-6.99 -8.33,-8.53 -0.45,-0.35 -0.24,0.46 -0.45,-0.61l0.85 -0.67zm16.81 -34.52l-14.74 14.85 0.55 0.34c0.13,0.49 -0.48,-0.16 0.44,0.73 0.6,0.59 0.27,0.13 0.83,0.61 0.86,0.74 0.47,0.88 1.45,1.71l3.6 2.73c2.52,1.64 5.79,3.15 9.61,2.64 6.03,-0.79 12.61,-7.71 12.88,-8.96 0.02,-0.06 0.03,-0.11 0.03,-0.16l-2.15 -2.13 -0.06 -0.04 -0.86 -0.75 -0.5 -0.61 -3.82 -3.78 -0.04 -0.02 -0.01 -0.03 -0.99 -0.98 -0.02 0 -0.01 -0.02 -6.19 -6.13zm-21.25 31.73l-0.91 -0.86c-0.81,-0.5 -1.51,-1.17 -1.97,-2.03 -0.93,-0.44 -0.38,0.08 -0.87,-0.91 -0.75,-0.29 -0.88,-0.5 -1.5,-1.42l9.87 -9.98c0.6,0.81 0.67,0.86 1.31,1.6 0.74,0.44 0.66,0.32 1.05,1.11 0.85,0.49 0.99,0.64 1.7,1.63l1.19 0.94 1.72 1.2 -2.45 2.52c-2.39,2.47 -5.06,5.6 -7.64,7.72 -0.82,-0.5 -1.08,-0.72 -1.5,-1.52zm8.68 -23.41c-0.73,0.76 -1.08,1.24 -2.02,2.1 -0.73,0.67 -1.2,1.17 -1.9,1.84 -2.52,2.43 -9.84,10.23 -11.41,11.25l-0.84 0.94 -2.2 -2.13 0 8.3 2.27 -2.02c0.94,0.56 6.36,5.98 6.86,6.72 -0.47,0.82 -1.78,2.42 -2.68,2.67 -0.39,1.03 -1.94,2.75 -2.88,3.05 -0.52,1.21 0.03,0.36 -1,1.25 -0.46,0.41 -0.57,0.57 -1.13,0.86l-1.44 -1.21 0 6.85 1.03 -0.84c0.27,-0.6 0.05,-0.37 0.69,-0.56 1.99,1.44 4.17,3.92 5.92,5.81l3.96 0c-0.84,-1.47 -2.64,-2.75 -3.92,-3.95 -1.18,-1.11 -2.82,-2.87 -4.02,-3.68 0.52,-1.15 1.25,-1.84 2.15,-2.4 0.49,-0.94 1.84,-2.42 2.85,-2.92 0.34,-1.01 1.52,-2.18 2.53,-2.7 1.26,0.62 15.02,14.38 15.65,15.65l8.26 0 14.77 -14.84 1.53 1.58 0.91 0.84c1.06,0.58 1.08,0.93 1.89,1.93l0.88 0.84 1.93 1.79 -5.45 5.75c-0.88,0.92 -1.47,1.02 -2.03,2.11l3.86 0c0.75,-1.11 2.86,-3.47 4.01,-4.11l0 -7.43c-1.92,-1.54 -3.54,-3.57 -5.53,-4.99 0.55,-1.12 1.54,-1.89 2.35,-2.56 0.64,-0.8 2.29,-2.86 3.18,-2.58l0 -4.55c-1.26,0.63 -1.41,1.46 -2.5,2.09l-2.82 2.89 -2.35 2.4 -5.91 -5.47c-0.79,-0.71 -1.46,-1.09 -1.73,-1.9l-2.77 -2.49c-0.27,-1.14 -0.18,-0.28 0.34,-0.62 0.82,-0.65 1.65,-1.31 2.58,-1.72 0.4,-0.57 0.76,-0.69 1.38,-1.38 0.72,-0.8 0.63,-0.96 1.72,-1.3 0.07,-1.18 0.11,-0.53 0.97,-1.45l1.33 -1.42c1.06,0.51 1.67,1.36 2.52,2.21 0.88,0.89 1.56,1.56 2.44,2.44 1.65,1.67 3.2,3.18 4.8,4.8l0 -4.03c-1.52,-0.83 -6.07,-5.81 -7.65,-7.39l-7.41 -7.28 0.52 -0.59c0.75,-1.36 3.75,-4.17 5.03,-5.55 1.78,-1.92 3.95,-3.33 5.24,-5.42l-3.86 0c-1.43,1.69 -7.31,8.18 -9.2,9.25 -0.66,-0.89 -1.18,-1.06 -1.72,-2.09 -0.89,-0.35 -0.39,0.15 -0.74,-0.74 -0.86,-0.45 -1.36,-0.96 -1.84,-1.79 -0.76,-0.41 -0.68,-0.33 -1.09,-1.09 -0.78,-0.45 -0.92,-0.6 -1.58,-1.57l1.72 -1.97 -7.7 0c0.66,0.64 1.18,0.99 1.76,2.03l-2.68 2.54 -2.82 2.89 -1.85 1.97 -0.72 -0.68c-0.24,-0.24 -0.32,-0.32 -0.57,-0.57 -0.47,-0.45 -0.72,-0.68 -1.19,-1.11l-7.17 -7.07 -3.96 0c1.23,2.02 6.3,5.74 8.69,8.64l2.86 2.83 -1.1 1.05z"
   class="fil2" />
    <path
   id="path296"
   d="M29.32 47.7c-0.24,-2.92 -0.36,-1.99 3.17,-5.74 0.8,-0.85 1.41,-1.54 2.23,-2.37 1.1,-1.12 1.59,-1.42 3.66,-1.31 -1.02,1.94 -2.92,3.06 -4.53,4.75 -1.36,1.42 -3.09,3.61 -4.53,4.67zm-0.35 -6.95l-0.24 -2.72 2.68 0.08 -2.44 2.64zm-5.67 -2.86l4.15 0.09 0.23 4.12c-0.8,-0.22 -3.86,-2.96 -4.38,-4.21zm-5.77 -0.02c2.4,-0.42 3.36,1.36 6.14,3.97 0.96,0.9 1.7,1.61 2.67,2.51 1.37,1.27 1.58,1.17 1.68,3.6l-0.36 -0.29c-0.04,-0.03 -0.12,-0.1 -0.17,-0.14l-9.96 -9.65zm10.94 -4.26l3.34 3.03 -3.18 0.07 -0.16 -3.1zm-1.32 -0.13l0.19 3.23 -3.21 -0.17 3.02 -3.06zm1 -5.21c1.22,0.64 3.58,3.14 4.65,4.15 1.36,1.27 3.69,3 4.52,4.51 -2.95,-0.03 -2.18,-0.05 -5.54,-3.2 -2.98,-2.79 -3.5,-2.6 -3.63,-5.46zm-16.42 8.05l-0.85 0.67c0.21,1.07 0,0.26 0.45,0.61 3.07,0 2.27,-0.02 5.39,2.88l10.71 10.51c1.05,1.21 1.08,1.39 0.86,3.54 0.4,0.28 -0.83,0.44 0.56,0.17l1.07 -1.12c-1.31,-1.67 4.1,-5.97 6.04,-7.86 1.24,-1.22 2.27,-2.43 3.47,-3.71l3.23 -3.64 2.27 0.16c0.45,-0.49 0.27,0.23 0.24,-0.67l-0.88 -0.7c-5.73,-0.51 -2.51,0.54 -7.22,-3.84l-4.32 -4.02c-0.7,-0.64 -1.15,-0.78 -0.85,-1.51 -1.63,0.49 -3.31,0.42 -5.06,0.26 0.14,2.26 -0.16,2.12 -1.28,3.25l-4.16 4.46c-1.06,1.08 -1.35,0.75 -3.35,0.66l7.9 -8.47 -2.83 -0.86c-0.68,1.21 -3.73,4.28 -5.02,5.36 -0.97,0.8 -1.69,1.65 -2.55,2.61 -1.52,1.69 -0.99,1.25 -3.82,1.26z"
   class="fil3" />
    <path
   id="path298"
   d="M-2.4 9.08l0 15.04 2.2 2.13 0.84 -0.94 -1.57 -15.55c2.74,0.01 15.7,-0.09 16.9,0.36l1.1 -1.05 -2.86 -2.83c-2.39,-2.9 -7.46,-6.62 -8.69,-8.64l-6.81 0 0.11 11.52 -1.22 -0.04z"
   class="fil3" />
    <path
   id="path300"
   d="M55 23.83l0 -14.77 -14.54 -0.49 -0.52 0.59 7.41 7.28c1.58,1.58 6.13,6.56 7.65,7.39z"
   class="fil3" />
    <path
   id="path302"
   d="M6.26 42.05c2.19,1.87 4.4,4.34 6.48,6.42 1.12,1.12 2.03,2.03 3.16,3.15 1.09,1.1 2.39,2.01 3.08,3.38l5.46 0c-0.63,-1.27 -14.39,-15.03 -15.65,-15.65 -1.01,0.52 -2.19,1.69 -2.53,2.7z"
   class="fil4" />
    <path
   id="path304"
   d="M3.41 44.97c1.73,1.56 3.31,3.28 5,4.96 1.3,1.31 4.03,3.62 4.8,5.07l5.77 0c-0.69,-1.37 -1.99,-2.28 -3.08,-3.38 -1.13,-1.12 -2.04,-2.03 -3.16,-3.15 -2.08,-2.08 -4.29,-4.55 -6.48,-6.42 -1.01,0.5 -2.36,1.98 -2.85,2.92z"
   class="fil5" />
    <path
   id="path306"
   d="M13.8 16.65c1.36,2.47 4.43,4.27 6.87,6.12 2.52,1.64 5.79,3.15 9.61,2.64 6.03,-0.79 12.61,-7.71 12.88,-8.96 0.29,-1.29 -0.56,-1.09 -1.27,-1.66 -0.27,1.15 -0.43,0.91 -1.18,1.82 -5.58,6.77 -12.06,9.54 -20.01,3.81 -1.16,-0.84 -1.88,-1.53 -2.89,-2.56 -1.54,-1.56 -2.17,-1.89 -2.41,-2.83l-1.6 1.62z"
   class="fil4" />
    <path
   id="path308"
   d="M39.84 23.96l9.84 9.8 2.82 -2.89 -9.56 -9.59c-1.09,0.34 -1,0.5 -1.71,1.3 -0.63,0.69 -0.99,0.81 -1.39,1.38z"
   class="fil5" />
    <path
   id="path310"
   d="M42.94 21.28l9.56 9.59c1.09,-0.63 1.24,-1.46 2.5,-2.09l0 -0.92c-1.6,-1.62 -3.15,-3.13 -4.8,-4.8 -0.88,-0.88 -1.56,-1.55 -2.44,-2.44 -0.85,-0.85 -1.46,-1.7 -2.52,-2.21l-1.33 1.42c-0.86,0.92 -0.9,0.27 -0.97,1.45z"
   class="fil4" />
    <path
   id="path312"
   d="M37.26 25.68c0.4,0.57 0.8,0.94 1.37,1.49 0.19,0.18 0.61,0.55 0.72,0.71 0.42,0.61 0.17,0.12 0.34,0.91 0.27,0.81 0.94,1.19 1.73,1.9l5.91 5.47 2.35 -2.4 -9.84 -9.8c-0.93,0.41 -1.76,1.07 -2.58,1.72z"
   class="fil4" />
    <path
   id="path314"
   d="M9.2 55l4.01 0c-0.77,-1.45 -3.5,-3.76 -4.8,-5.07 -1.69,-1.68 -3.27,-3.4 -5,-4.96 -0.9,0.56 -1.63,1.25 -2.15,2.4 1.2,0.81 2.84,2.57 4.02,3.68 1.28,1.2 3.08,2.48 3.92,3.95z"
   class="fil4" />
    <path
   id="path316"
   d="M-2.4 32.42l0 1.21c1.56,0.76 4.97,4.64 6.45,6.16 0.9,-0.25 2.21,-1.85 2.68,-2.67 -0.5,-0.74 -5.92,-6.16 -6.86,-6.72l-2.27 2.02z"
   class="fil4" />
    <polygon
   id="polygon318"
   points="20.98,5.06 23.8,2.17 19.25,-2.4 13.48,-2.4 "
   class="fil5" />
    <path
   id="path320"
   d="M20.98 5.06l-7.5 -7.46 -4 0 7.17 7.07c0.47,0.43 0.72,0.66 1.19,1.11 0.25,0.25 0.33,0.33 0.57,0.57l0.72 0.68 1.85 -1.97z"
   class="fil4" />
    <path
   id="path322"
   d="M-2.4 39.4c0.9,0.46 2.99,2.58 3.57,3.44 0.94,-0.3 2.49,-2.02 2.88,-3.05 -1.48,-1.52 -4.89,-5.4 -6.45,-6.16l0 5.77z"
   class="fil5" />
    <path
   id="path324"
   d="M36.11 55l1.8 0c1.94,-2.04 3.9,-3.95 5.92,-6.01 1.46,-1.48 5.21,-4.88 6.08,-6.41l-0.91 -0.84 -12.89 13.26z"
   class="fil5" />
    <path
   id="path326"
   d="M-1.37 49.75l0.08 5.25 6.53 0c-1.75,-1.89 -3.93,-4.37 -5.92,-5.81 -0.64,0.19 -0.42,-0.04 -0.69,0.56z"
   class="fil3" />
    <path
   id="path328"
   d="M55 43.46l0 -4.35 -3.18 -3.2c-0.81,0.67 -1.8,1.44 -2.35,2.56 1.99,1.42 3.61,3.45 5.53,4.99z"
   class="fil4" />
    <path
   id="path330"
   d="M41.55 55l1.81 0 9.32 -9.65 -0.88 -0.84c-1.58,1.69 -3.44,3.45 -5.19,5.26 -1.47,1.5 -3.96,3.71 -5.06,5.23z"
   class="fil5" />
    <path
   id="path332"
   d="M23.8 2.17l2.68 -2.54c-0.58,-1.04 -1.1,-1.39 -1.76,-2.03l-5.47 0 4.55 4.57z"
   class="fil4" />
    <path
   id="path334"
   d="M6.38 32.67l0.91 0.86c0.88,-1.4 3.51,-3.77 4.81,-5.07 1.36,-1.37 3.5,-4.03 5.06,-4.85l-1.19 -0.94c-0.16,0.4 0.02,0.07 -0.28,0.49l-8.24 8.1c-0.7,0.7 -0.66,0.54 -1.07,1.41z"
   class="fil5" />
    <path
   id="path336"
   d="M3.54 29.73c0.49,0.99 -0.06,0.47 0.87,0.91 1.57,-1.2 3.36,-3.29 4.82,-4.76 1.34,-1.35 3.53,-4.06 5.04,-4.84 -0.39,-0.79 -0.31,-0.67 -1.05,-1.11 -0.8,1.56 -3.44,3.79 -4.79,5.15 -0.86,0.87 -1.71,1.42 -2.57,2.3 -0.84,0.86 -1.44,1.48 -2.32,2.35z"
   class="fil5" />
    <g
   id="g346">
     <path
   id="path338"
   d="M16.85 13.58c0.35,1.4 3.26,3.96 4.44,4.81 8.84,6.37 18.64,-1.87 19.69,-4.27l-0.86 -0.75c-1.21,0.51 -2.9,2.36 -5.24,3.72 -10.59,6.14 -14.86,-3.56 -17.3,-4.25l-0.73 0.74z"
   class="fil5" />
     <path
   id="path340"
   d="M19.41 10.99c1.42,2.12 5.23,5.37 9.21,5.47 3.86,0.11 6.39,-1.89 8.71,-4.09 0.66,-0.63 0.41,-0.56 1.14,-0.75l-1.52 -1.51c-0.87,2.27 -5.99,4.69 -8.32,4.59 -4.26,-0.17 -6.72,-3.7 -8.18,-4.75l-1.04 1.04z"
   class="fil4" />
     <path
   id="path342"
   d="M22.02 8.37c0.39,1.72 3.8,4.13 6.35,4.32 3.31,0.25 6.18,-2.05 7.39,-3.73l-0.01 -0.03 -0.99 -0.98 -0.02 0c-1.59,1.06 -3.29,3.29 -6.33,2.99 -3.04,-0.31 -4.22,-2.92 -5.7,-3.27l-0.69 0.7z"
   class="fil5" />
     <path
   id="path344"
   d="M24.43 5.94c1.63,0.64 3.02,4.18 7.84,1.08 1.08,-0.7 0.14,-0.36 0.99,-0.56l-1.5 -1.47c-0.19,0.6 0.27,-0.05 -0.56,0.67 -1.65,1.43 -4.69,0.89 -5.19,-1.31l-1.58 1.59z"
   class="fil4" />
    </g>
    <path
   id="path348"
   d="M35.21 4.02c0.35,0.89 -0.15,0.39 0.74,0.74 1.28,-1.12 2.29,-2.29 3.48,-3.5 1.22,-1.23 2.87,-2.19 3.65,-3.66l-1.8 0 -6.07 6.42z"
   class="fil5" />
    <path
   id="path350"
   d="M-2.4 43.74l1.44 1.21c0.56,-0.29 0.67,-0.45 1.13,-0.86 1.03,-0.89 0.48,-0.04 1,-1.25 -0.58,-0.86 -2.67,-2.98 -3.57,-3.44l0 4.34z"
   class="fil4" />
    <path
   id="path352"
   d="M51.82 35.91l3.18 3.2 0 -5.78c-0.89,-0.28 -2.54,1.78 -3.18,2.58z"
   class="fil5" />
    <path
   id="path354"
   d="M32.28 1.14c0.41,0.76 0.33,0.68 1.09,1.09 0.39,-0.79 0.28,-0.59 0.91,-1.25 0.43,-0.44 0.7,-0.7 1.14,-1.15 0.79,-0.81 1.47,-1.48 2.22,-2.23l-1.79 0c-0.49,0.81 -0.97,1.17 -1.66,1.87 -0.34,0.34 -0.49,0.53 -0.84,0.87 -0.65,0.63 -0.3,0.38 -1.07,0.8z"
   class="fil5" />
   </g>
  </g>
  <polygon
   id="polygon359"
   points="0,0 52.6,0 52.6,52.6 0,52.6 "
   class="fil6" />
 </g>
</svg>
