<?xml version="1.0" encoding="UTF-8" standalone="no"?>
<svg
   xmlns:dc="http://purl.org/dc/elements/1.1/"
   xmlns:cc="http://creativecommons.org/ns#"
   xmlns:rdf="http://www.w3.org/1999/02/22-rdf-syntax-ns#"
   xmlns:svg="http://www.w3.org/2000/svg"
   xmlns="http://www.w3.org/2000/svg"
   id="svg1066"
   viewBox="0 0 24.6 24.6"
   style="shape-rendering:geometricPrecision; text-rendering:geometricPrecision; image-rendering:optimizeQuality; fill-rule:evenodd; clip-rule:evenodd"
   version="1.1"
   height="113px"
   width="113px"
   xml:space="preserve"><metadata
   id="metadata1070"><rdf:RDF><cc:Work
       rdf:about=""><dc:format>image/svg+xml</dc:format><dc:type
         rdf:resource="http://purl.org/dc/dcmitype/StillImage" /><dc:title></dc:title></cc:Work></rdf:RDF></metadata>
 <defs
   id="defs999">
  <style
   id="style994"
   type="text/css">
   <![CDATA[
    .fil5 {fill:none}
    .fil1 {fill:#1A2129}
    .fil2 {fill:#69755E}
    .fil3 {fill:#A22E34}
    .fil0 {fill:#CCCCCC}
    .fil4 {fill:#E9B685}
   ]]>
  </style>
   <clipPath
   id="id0">
    <path
   id="path996"
   d="M0 0l24.6 0 0 24.6 -24.6 0 0 -24.6z" />
   </clipPath>
 </defs>
 <g
   id="Capa_x0020_1">
  <metadata
   id="CorelCorpID_0Corel-Layer" />
  <polygon
   id="polygon1002"
   points="0,0 24.6,0 24.6,24.6 0,24.6 "
   class="fil0" />
  <g
   id="g1061"
   clip-path="url(#id0)"
   style="clip-path:url(#id0)">
   <g
   id="_1439926719696">
    <rect
   id="rect1004"
   height="52.42"
   width="52.22"
   y="-16.46"
   x="-12.02"
   class="fil1" />
    <path
   id="path1006"
   d="M9.37 10.98c-0.37,-2.9 -0.03,-5.9 3.26,-6.49 7.49,-1.34 7.09,5.44 6.17,7.82 -1,2.59 -5.79,2.19 -7.52,1.58 -1.34,-0.47 -1.71,-1.29 -1.91,-2.91zm1.85 -7.01c-1.82,0.44 -2.2,0.99 -2.39,3.11 -0.36,4.16 -0.33,7.18 3.32,7.6 1.46,0.17 3.99,0.21 5.4,-0.16 1.58,-0.42 1.96,-1.27 2.14,-3.14 0.14,-1.51 0.13,-3.85 -0.21,-5.28 -0.37,-1.57 -1.25,-2.05 -3.09,-2.24 -1.56,-0.17 -3.68,-0.24 -5.17,0.11z"
   class="fil2" />
    <path
   id="path1008"
   d="M5.85 11.59c-0.38,1.65 -0.82,2.1 -2.47,2.48 -1.44,0.33 -3.14,0.34 -4.58,-0.01 -1.71,-0.41 -2.08,-0.79 -2.47,-2.39 -0.35,-1.45 -0.29,-3.18 0.09,-4.55 0.44,-1.6 0.84,-2.03 2.43,-2.47 2.21,-0.6 6.05,-0.71 6.89,2.5 0.35,1.32 0.41,3.12 0.11,4.44zm-7.11 -7.72c-1.74,0.26 -2.59,0.78 -2.94,2.45 -0.28,1.31 -0.29,3.82 -0.15,5.15 0.2,1.84 0.79,2.77 2.43,3.12 1.43,0.3 3.98,0.26 5.44,0.05 3.44,-0.49 3.35,-4.02 2.97,-7.66 -0.18,-1.79 -0.66,-2.72 -2.44,-3.06 -1.38,-0.26 -3.95,-0.25 -5.31,-0.05z"
   class="fil2" />
    <path
   id="path1010"
   d="M-0.41 17.2c1.34,-0.15 3.26,-0.06 4.46,0.44 2.39,0.99 2,5.69 1.19,7.53 -0.53,1.24 -1.62,1.61 -3.04,1.82 -1.37,0.21 -3.25,0.06 -4.38,-0.47 -2.28,-1.06 -2.19,-5.74 -1.45,-7.57 0.5,-1.22 1.62,-1.56 3.22,-1.75zm-0.8 -0.41c-1.75,0.2 -2.81,0.76 -3.16,2.46 -0.3,1.43 -0.3,3.67 -0.16,5.15 0.18,1.94 0.63,2.77 2.38,3.13 1.38,0.28 3.71,0.25 5.12,0.1 2,-0.22 2.76,-0.66 3.15,-2.4 0.32,-1.4 0.31,-3.72 0.18,-5.15 -0.18,-1.94 -0.61,-2.8 -2.35,-3.19 -1.29,-0.29 -3.83,-0.25 -5.16,-0.1z"
   class="fil2" />
    <path
   id="path1012"
   d="M22.05 23.47c-0.24,-3.39 0.34,-5.62 3.65,-6.08 3.63,-0.51 5.66,0.38 6.15,3.79 0.52,3.61 -0.25,5.54 -3.52,5.99 -1.49,0.2 -3.24,0.07 -4.53,-0.41 -1.25,-0.46 -1.64,-1.66 -1.75,-3.29zm2.22 -6.63c-1.85,0.32 -2.4,0.88 -2.65,2.77 -0.19,1.45 -0.19,3.93 0.08,5.34 0.35,1.81 1.11,2.36 2.94,2.64 1.39,0.21 3.74,0.21 5.11,-0.02 1.81,-0.3 2.3,-0.88 2.59,-2.71 0.22,-1.44 0.21,-3.95 -0.05,-5.38 -0.33,-1.82 -1.03,-2.36 -2.92,-2.65 -1.45,-0.22 -3.69,-0.23 -5.1,0.01z"
   class="fil2" />
    <path
   id="path1014"
   d="M12.21 17.48c1.38,-0.27 2.96,-0.2 4.26,0.24 1.4,0.48 1.76,1.25 2.09,2.79 0.3,1.43 0.3,3.21 -0.12,4.54 -0.89,2.82 -5.69,2.44 -7.46,1.85 -2.88,-0.97 -2.33,-5.54 -1.69,-7.31 0.53,-1.45 1.28,-1.8 2.92,-2.11zm-1.2 -0.6c-1.98,0.36 -2.37,0.89 -2.6,3.03 -0.15,1.4 -0.14,3.76 0.13,5.12 0.35,1.79 1.13,2.3 2.99,2.56 1.4,0.2 3.74,0.21 5.11,-0.04 1.78,-0.31 2.33,-1.07 2.56,-2.92 0.18,-1.41 0.18,-3.88 -0.1,-5.24 -0.35,-1.72 -1.16,-2.29 -2.94,-2.55 -1.66,-0.24 -3.56,-0.25 -5.15,0.04z"
   class="fil3" />
    <path
   id="path1016"
   d="M32.05 -2.33c-0.23,1.58 -0.61,2.48 -2,2.96 -1.62,0.56 -6.6,1.1 -7.51,-1.69 -0.61,-1.88 -0.74,-6.48 1.88,-7.43 1.78,-0.64 6.16,-1.04 7.22,1.82 0.49,1.32 0.61,2.92 0.41,4.34zm-7.6 -7.05c-1.8,0.32 -2.41,0.91 -2.65,2.77 -0.18,1.43 -0.16,3.99 0.1,5.35 0.34,1.77 1.15,2.36 2.95,2.61 1.44,0.2 3.67,0.22 5.09,-0.03 1.72,-0.3 2.32,-0.94 2.58,-2.7 0.21,-1.42 0.2,-3.91 -0.04,-5.3 -0.32,-1.86 -0.96,-2.42 -2.83,-2.69 -1.56,-0.23 -3.69,-0.27 -5.2,-0.01z"
   class="fil4" />
    <path
   id="path1018"
   d="M5.86 -1.72c-0.37,1.65 -0.84,2.11 -2.46,2.5 -1.46,0.35 -3.21,0.34 -4.62,0.01 -1.62,-0.38 -2.1,-0.9 -2.46,-2.43 -0.34,-1.44 -0.29,-3.18 0.1,-4.55 0.45,-1.53 0.86,-2.04 2.43,-2.48 2.13,-0.59 6.03,-0.66 6.89,2.51 0.36,1.34 0.42,3.1 0.12,4.44zm-7.18 -7.64c-1.85,0.27 -2.62,0.89 -2.93,2.72 -0.22,1.35 -0.25,3.81 -0.05,5.17 0.26,1.8 0.97,2.55 2.74,2.82 1.43,0.22 3.65,0.2 5.09,-0.02 1.8,-0.27 2.54,-0.86 2.85,-2.69 0.24,-1.4 0.26,-3.73 0.08,-5.16 -0.23,-1.85 -0.74,-2.56 -2.65,-2.88 -1.42,-0.23 -3.7,-0.17 -5.13,0.04z"
   class="fil4" />
    <path
   id="path1020"
   d="M22.3 11.18c-0.24,-1.43 -0.14,-3.18 0.32,-4.47 0.45,-1.3 1.19,-1.87 2.74,-2.19 3.21,-0.67 5.91,0.01 6.56,3.04 0.31,1.44 0.31,3.28 -0.16,4.61 -0.91,2.61 -5.22,2.48 -7.43,1.78 -1.43,-0.46 -1.77,-1.17 -2.03,-2.77zm1.84 -7.19c-1.79,0.43 -2.2,1 -2.38,3.09 -0.36,4.15 -0.34,7.17 3.29,7.58 1.48,0.16 3.98,0.23 5.4,-0.15 1.55,-0.41 1.96,-1.29 2.13,-3.13 0.14,-1.46 0.15,-3.86 -0.2,-5.27 -0.38,-1.59 -1.25,-2.02 -3.05,-2.24 -1.58,-0.19 -3.7,-0.25 -5.19,0.12z"
   class="fil4" />
    <path
   id="path1022"
   d="M19.15 -2.33c-0.23,1.6 -0.6,2.47 -2,2.95 -2.17,0.75 -6.63,0.88 -7.51,-1.68 -0.63,-1.84 -0.89,-6.32 1.88,-7.43 1.81,-0.72 6.15,-1.03 7.23,1.81 0.48,1.26 0.6,2.92 0.4,4.35zm-7.51 -7c-1.81,0.34 -2.42,0.81 -2.72,2.75 -0.21,1.43 -0.23,4.01 0.03,5.43 0.34,1.87 0.96,2.28 2.94,2.53 1.46,0.18 3.68,0.17 5.12,-0.1 1.65,-0.31 2.28,-1.05 2.57,-2.73 0.24,-1.44 0.25,-3.84 0.04,-5.32 -0.26,-1.77 -1.01,-2.41 -2.81,-2.65 -1.67,-0.22 -3.57,-0.21 -5.17,0.09z"
   class="fil3" />
    <path
   id="path1024"
   d="M-0.84 6.27c1.18,-0.52 4.18,-0.7 4.91,1.32 2.01,5.59 -5.11,6.39 -6.12,3.45 -0.48,-1.38 -0.72,-3.93 1.21,-4.77zm0.01 -0.74c-1.47,0.3 -1.66,0.55 -1.93,2 -0.93,4.87 0.71,6.55 5.63,5.64 1.36,-0.25 1.72,-0.62 1.97,-1.94 0.22,-1.13 0.23,-2.43 0,-3.56 -0.27,-1.39 -0.51,-1.79 -1.82,-2.09 -1.24,-0.28 -2.65,-0.3 -3.85,-0.05z"
   class="fil3" />
    <path
   id="path1026"
   d="M-0.69 -7.08c1.24,-0.43 4.1,-0.56 4.77,1.35 0.65,1.86 0.24,4.08 -1.26,4.72 -5.64,2.37 -6.53,-5.01 -3.51,-6.07zm-0.21 -0.63c-1.48,0.33 -1.62,0.52 -1.9,2.11 -0.19,1.09 -0.18,2.38 0.01,3.46 0.23,1.31 0.5,1.76 1.88,2.02 1.25,0.25 2.72,0.23 3.97,-0.04 1.35,-0.29 1.6,-0.67 1.82,-2.08 0.18,-1.1 0.16,-2.52 -0.07,-3.6 -0.28,-1.34 -0.68,-1.64 -1.98,-1.9 -1.25,-0.25 -2.54,-0.24 -3.73,0.03z"
   class="fil2" />
    <path
   id="path1028"
   d="M12.67 19.05c2.15,-0.52 4.08,-0.08 4.43,2.1 0.29,1.82 0.09,3.85 -1.94,4.3 -2.25,0.49 -4.09,-0.13 -4.52,-2.09 -0.43,-1.94 -0.11,-3.8 2.03,-4.31zm-2.67 5.03c0.26,1.5 0.47,1.74 1.96,2.03 1.09,0.21 2.4,0.23 3.49,0.07 1.46,-0.22 1.84,-0.38 2.14,-1.76 0.27,-1.21 0.27,-2.58 0.07,-3.8 -0.26,-1.47 -0.55,-1.87 -1.94,-2.14 -1.18,-0.22 -2.48,-0.23 -3.66,0.01 -1.35,0.28 -1.69,0.52 -2,1.88 -0.25,1.13 -0.26,2.54 -0.06,3.71z"
   class="fil2" />
    <path
   id="path1030"
   d="M17.26 -2.33c-0.53,1.56 -2.88,2.06 -4.74,1.45 -1.65,-0.53 -1.98,-2.92 -1.46,-4.81 0.6,-2.15 3.56,-1.78 4.79,-1.36 1.73,0.59 2.02,2.91 1.41,4.72zm-5.02 -5.37c-1.34,0.33 -1.64,0.68 -1.87,2.17 -0.19,1.2 -0.18,2.48 0.08,3.68 0.29,1.42 0.62,1.52 2.11,1.77 1.12,0.19 2.51,0.17 3.61,-0.06 1.37,-0.29 1.63,-0.63 1.88,-2.02 0.21,-1.17 0.2,-2.6 -0.08,-3.76 -0.29,-1.25 -0.73,-1.6 -2.02,-1.84 -1.24,-0.23 -2.54,-0.23 -3.71,0.06z"
   class="fil2" />
    <path
   id="path1032"
   d="M25.7 19.11c2.12,-0.62 4.11,-0.23 4.54,1.81 1.27,6.13 -5.68,5.61 -6.41,2.54 -0.44,-1.89 -0.16,-3.75 1.87,-4.35zm-0.38 -0.61c-1.36,0.28 -1.77,0.49 -2.08,1.94 -0.24,1.1 -0.24,2.55 -0.04,3.65 0.24,1.4 0.52,1.72 1.88,2 1.12,0.23 2.55,0.23 3.66,0.04 1.47,-0.24 1.78,-0.43 2.07,-1.84 0.22,-1.14 0.22,-2.61 0.02,-3.73 -0.23,-1.35 -0.49,-1.78 -1.82,-2.07 -1.2,-0.25 -2.53,-0.23 -3.69,0.01z"
   class="fil4" />
    <path
   id="path1034"
   d="M-0.44 19.04c4.5,-1.21 5.31,2.25 4.49,4.94 -0.75,2.45 -5.65,2.03 -6.28,-0.47 -0.37,-1.46 -0.31,-3.91 1.79,-4.47zm-0.07 -0.76c-1.41,0.21 -1.99,0.25 -2.32,1.67 -0.41,1.79 -0.65,5.31 1.55,5.89 1.15,0.31 2.49,0.33 3.68,0.16 1.33,-0.19 1.88,-0.41 2.23,-1.65 0.32,-1.14 0.33,-2.54 0.15,-3.75 -0.2,-1.43 -0.35,-1.92 -1.67,-2.23 -1.14,-0.28 -2.47,-0.26 -3.62,-0.09z"
   class="fil4" />
    <path
   id="path1036"
   d="M25.72 6.23c4.2,-1.33 5.41,1.53 4.64,4.52 -0.76,2.93 -5.6,2.36 -6.29,-0.03 -0.44,-1.53 -0.45,-3.83 1.65,-4.49zm-0.4 -0.62c-1.45,0.36 -1.63,0.52 -1.93,2.09 -0.2,1.09 -0.2,2.41 0,3.5 0.24,1.35 0.61,1.69 1.92,1.95 1.2,0.24 2.76,0.24 3.96,-0.01 1.32,-0.28 1.55,-0.74 1.78,-2.12 0.32,-2.03 0.41,-5.02 -1.98,-5.49 -1.21,-0.25 -2.61,-0.21 -3.75,0.08z"
   class="fil3" />
    <path
   id="path1038"
   d="M25.75 -7.07c2.02,-0.63 4.19,-0.41 4.66,1.63 0.3,1.32 0.36,4.07 -1.6,4.6 -2.05,0.55 -4.23,0.12 -4.75,-1.74 -0.45,-1.62 -0.41,-3.83 1.69,-4.49zm-0.41 -0.63c-1.46,0.36 -1.65,0.52 -1.94,2.08 -0.21,1.1 -0.21,2.4 -0.01,3.51 0.24,1.35 0.6,1.7 1.91,1.97 1.27,0.26 2.72,0.25 3.98,-0.02 1.33,-0.28 1.56,-0.7 1.77,-2.14 0.17,-1.08 0.15,-2.45 -0.07,-3.51 -0.29,-1.39 -0.56,-1.69 -1.92,-1.94 -1.26,-0.24 -2.53,-0.23 -3.72,0.05z"
   class="fil3" />
    <path
   id="path1040"
   d="M12.81 6.22c2.07,-0.63 4.23,-0.34 4.7,1.65 1.47,6.29 -5.55,5.61 -6.36,2.87 -0.43,-1.49 -0.47,-3.87 1.66,-4.52zm-0.43 -0.63c-1.42,0.34 -1.64,0.57 -1.91,2.07 -0.19,1.08 -0.21,2.43 -0.01,3.53 0.25,1.38 0.63,1.68 1.96,1.95 1.27,0.27 2.67,0.26 3.93,-0.01 1.38,-0.29 1.55,-0.73 1.77,-2.1 0.17,-1.13 0.16,-2.44 -0.04,-3.52 -0.27,-1.38 -0.59,-1.72 -1.91,-1.97 -1.26,-0.25 -2.59,-0.24 -3.79,0.05z"
   class="fil4" />
    <path
   id="path1042"
   d="M15.82 10.77c1.83,-3.59 -2.52,-4.04 -3.26,-2.86 -0.46,0.72 -0.3,2.49 0.31,2.96 0.74,0.58 2.23,0.37 2.95,-0.1z"
   class="fil3" />
    <path
   id="path1044"
   d="M12.27 23.9c0.86,0.19 2.54,0.58 3.14,-0.24 0.53,-0.74 0.32,-2.57 -0.25,-3 -0.69,-0.53 -2.56,-0.5 -3.01,0.15 -0.61,0.88 -0.13,2.44 0.12,3.09z"
   class="fil3" />
    <path
   id="path1046"
   d="M28.72 10.77c1.84,-3.53 -2.47,-4.11 -3.25,-2.85 -0.41,0.67 -0.25,2.49 0.3,2.94 0.74,0.6 2.24,0.39 2.95,-0.09z"
   class="fil2" />
    <path
   id="path1048"
   d="M-0.55 20.6c-0.5,0.66 -0.79,2.31 -0.2,3.07 0.5,0.65 2.31,0.56 2.95,0.09 1.07,-0.82 1.02,-4.82 -2.75,-3.16z"
   class="fil3" />
    <path
   id="path1050"
   d="M28.76 -2.54c0.38,-0.81 0.46,-2.57 -0.24,-3.06 -0.68,-0.48 -2.58,-0.49 -3.04,0.22 -0.45,0.72 -0.31,2.48 0.27,2.95 0.75,0.62 2.33,0.39 3.01,-0.11z"
   class="fil2" />
    <path
   id="path1052"
   d="M2.71 10.8c0.27,-0.7 0.5,-2.48 -0.03,-3.05 -0.64,-0.68 -2.37,-0.25 -3.11,-0.08 -1.16,3.41 0.69,4.16 3.14,3.13z"
   class="fil4" />
    <path
   id="path1054"
   d="M12.75 -2.55c0.36,0.32 4.46,1.87 3.16,-3.12 -4.99,-1.19 -3.4,2.78 -3.16,3.12z"
   class="fil3" />
    <path
   id="path1056"
   d="M28.53 23.6c0.58,-0.82 0.25,-2.01 0.05,-2.89 -2.27,-0.74 -3.54,-0.7 -3.5,1.52 0.04,2.52 2.46,1.97 2.95,1.76 0.48,-0.21 0.28,-0.15 0.5,-0.39z"
   class="fil3" />
    <path
   id="path1058"
   d="M-0.4 -5.63c-0.32,0.73 -0.73,2.5 -0.02,3.17 0.69,0.66 2.46,0.27 3.15,-0.03 0.28,-1.06 0.27,-2.14 0.01,-3.14 -0.98,-0.3 -2.08,-0.27 -3.14,0z"
   class="fil3" />
   </g>
  </g>
  <polygon
   id="polygon1063"
   points="0,0 24.6,0 24.6,24.6 0,24.6 "
   class="fil5" />
 </g>
</svg>
