<?xml version="1.0" encoding="UTF-8" standalone="no"?>
<svg
   xmlns:dc="http://purl.org/dc/elements/1.1/"
   xmlns:cc="http://creativecommons.org/ns#"
   xmlns:rdf="http://www.w3.org/1999/02/22-rdf-syntax-ns#"
   xmlns:svg="http://www.w3.org/2000/svg"
   xmlns="http://www.w3.org/2000/svg"
   id="svg190"
   viewBox="0 0 25.71 25.71"
   style="shape-rendering:geometricPrecision; text-rendering:geometricPrecision; image-rendering:optimizeQuality; fill-rule:evenodd; clip-rule:evenodd"
   version="1.1"
   height="113px"
   width="113px"
   xml:space="preserve"><metadata
   id="metadata194"><rdf:RDF><cc:Work
       rdf:about=""><dc:format>image/svg+xml</dc:format><dc:type
         rdf:resource="http://purl.org/dc/dcmitype/StillImage" /><dc:title></dc:title></cc:Work></rdf:RDF></metadata>
 <defs
   id="defs153">
  <style
   id="style148"
   type="text/css">
   <![CDATA[
    .fil5 {fill:none}
    .fil1 {fill:#594E4D}
    .fil0 {fill:#CCCCCC}
    .fil3 {fill:#CFE2EB}
    .fil4 {fill:#D99255}
    .fil2 {fill:#F2C9D1}
   ]]>
  </style>
   <clipPath
   id="id0">
    <path
   id="path150"
   d="M0 0l25.71 0 0 25.71 -25.71 0 0 -25.71z" />
   </clipPath>
 </defs>
 <g
   id="Capa_x0020_1">
  <metadata
   id="CorelCorpID_0Corel-Layer" />
  <polygon
   id="polygon156"
   points="0,0 25.71,0 25.71,25.71 0,25.71 "
   class="fil0" />
  <g
   id="g185"
   clip-path="url(#id0)"
   style="clip-path:url(#id0)">
   <g
   id="_1439935501376">
    <rect
   id="rect158"
   height="29.95"
   width="29.51"
   y="-2.12"
   x="-1.9"
   class="fil1" />
    <polygon
   id="polygon160"
   points="12.03,6.14 13.31,6.31 12.05,14.25 15,6.69 16.13,7.32 12.08,14.26 17.56,8.28 18.39,9.27 12.11,14.29 19.38,10.68 19.79,11.91 12.12,14.32 20.2,13.58 20.14,14.87 12.12,14.35 19.92,16.58 19.4,17.77 12.11,14.38 18.58,19.28 17.67,20.2 12.09,14.41 16.35,21.31 15.17,21.84 12.06,14.42 13.54,22.4 12.25,22.46 12.03,14.43 10.53,22.4 9.3,21.99 12,14.42 7.72,21.31 6.72,20.49 11.97,14.4 5.49,19.28 4.86,18.15 11.95,14.38 4.14,16.58 3.97,15.31 11.94,14.34 3.87,13.58 4.16,12.33 11.95,14.31 4.69,10.68 5.42,9.62 11.96,14.28 6.51,8.28 7.57,7.55 11.99,14.26 9.07,6.69 10.33,6.39 12.02,14.25 "
   class="fil2" />
    <polygon
   id="polygon162"
   points="28,-5.97 30.2,-6.1 30.35,14.12 33.13,-5.92 35.29,-5.5 30.41,14.12 38.08,-4.59 40.07,-3.64 30.46,14.15 42.55,-2.07 44.23,-0.66 30.51,14.18 46.24,1.48 47.53,3.26 30.54,14.23 48.94,5.84 49.74,7.89 30.56,14.28 50.47,10.73 50.74,12.91 30.57,14.33 50.74,15.85 50.45,18.03 30.57,14.39 49.72,20.87 48.91,22.92 30.55,14.45 47.49,25.49 46.19,27.26 30.52,14.49 44.18,29.4 42.48,30.8 30.47,14.53 40,32.37 38.01,33.3 30.42,14.56 35.21,34.2 33.05,34.61 30.37,14.57 30.12,34.79 27.93,34.64 30.31,14.57 25.04,34.09 22.96,33.4 30.26,14.55 20.3,32.15 18.45,30.97 30.21,14.52 16.18,29.1 14.69,27.49 30.17,14.48 12.96,25.11 11.91,23.18 30.14,14.43 10.83,20.45 10.29,18.32 30.12,14.38 9.92,15.4 9.93,13.2 30.12,14.32 10.3,10.29 10.86,8.16 30.13,14.27 11.94,5.43 13.01,3.51 30.16,14.22 14.73,1.14 16.24,-0.46 30.2,14.17 18.51,-2.33 20.37,-3.5 30.24,14.14 23.03,-4.75 25.12,-5.42 30.3,14.12 "
   class="fil3" />
    <polygon
   id="polygon164"
   points="-5.4,-6.11 -3.21,-5.98 -5.37,14.12 -0.32,-5.47 1.78,-4.8 -5.31,14.13 4.45,-3.58 6.31,-2.41 -5.27,14.16 8.6,-0.57 10.11,1.03 -5.22,14.2 11.87,3.38 12.94,5.3 -5.19,14.25 14.05,8.02 14.61,10.15 -5.18,14.3 15.01,13.06 15.02,15.26 -5.18,14.36 14.69,18.17 14.15,20.31 -5.19,14.42 13.1,23.05 12.06,24.98 -5.21,14.47 10.36,27.38 8.86,28.99 -5.25,14.51 6.62,30.89 4.77,32.08 -5.3,14.54 2.13,33.36 0.04,34.05 -5.35,14.56 -2.84,34.63 -5.03,34.78 -5.41,14.57 -7.96,34.63 -10.13,34.23 -5.46,14.56 -12.93,33.36 -14.93,32.43 -5.52,14.54 -17.42,30.89 -19.13,29.5 -5.56,14.5 -21.16,27.38 -22.46,25.61 -5.6,14.46 -23.91,23.05 -24.73,21.01 -5.62,14.41 -25.49,18.17 -25.78,15.99 -5.63,14.35 -25.81,13.06 -25.55,10.87 -5.62,14.3 -24.85,8.02 -24.06,5.97 -5.61,14.24 -22.67,3.38 -21.39,1.6 -5.57,14.19 -19.4,-0.57 -17.72,-1.98 -5.53,14.16 -15.25,-3.58 -13.27,-4.53 -5.48,14.13 -10.49,-5.47 -8.33,-5.89 -5.43,14.12 "
   class="fil3" />
    <path
   id="path166"
   d="M2.24 -18.81c-1.76,33.84 10.28,33.77 13.13,62.95 -6.36,-28.54 -18.22,-32.27 -13.13,-62.95z"
   class="fil4" />
    <path
   id="path168"
   d="M6.17 -18.81c-1.76,33.84 10.28,33.77 13.13,62.95 -6.36,-28.54 -18.22,-32.27 -13.13,-62.95z"
   class="fil4" />
    <path
   id="path170"
   d="M10.1 -18.81c-1.76,33.84 10.28,33.77 13.13,62.95 -6.36,-28.54 -18.22,-32.27 -13.13,-62.95z"
   class="fil4" />
    <path
   id="path172"
   d="M1.83 16.64c-1.75,33.84 10.28,33.77 13.13,62.95 -6.36,-28.54 -18.22,-32.27 -13.13,-62.95z"
   class="fil4" />
    <path
   id="path174"
   d="M5.76 16.64c-1.75,33.84 10.28,33.77 13.13,62.95 -6.36,-28.54 -18.22,-32.27 -13.13,-62.95z"
   class="fil4" />
    <path
   id="path176"
   d="M9.69 16.64c-1.75,33.84 10.28,33.77 13.13,62.95 -6.36,-28.54 -18.22,-32.27 -13.13,-62.95z"
   class="fil4" />
    <path
   id="path178"
   d="M21.82 15.57c1.76,-33.84 -10.28,-33.77 -13.12,-62.96 6.36,28.54 18.22,32.28 13.12,62.96z"
   class="fil4" />
    <path
   id="path180"
   d="M17.89 15.57c1.76,-33.84 -10.28,-33.77 -13.12,-62.96 6.36,28.54 18.22,32.28 13.12,62.96z"
   class="fil4" />
    <path
   id="path182"
   d="M13.97 15.57c1.75,-33.84 -10.29,-33.77 -13.13,-62.96 6.36,28.54 18.22,32.28 13.13,62.96z"
   class="fil4" />
   </g>
  </g>
  <polygon
   id="polygon187"
   points="0,0 25.71,0 25.71,25.71 0,25.71 "
   class="fil5" />
 </g>
</svg>
