<?xml version="1.0" encoding="UTF-8" standalone="no"?>
<svg
   xmlns:dc="http://purl.org/dc/elements/1.1/"
   xmlns:cc="http://creativecommons.org/ns#"
   xmlns:rdf="http://www.w3.org/1999/02/22-rdf-syntax-ns#"
   xmlns:svg="http://www.w3.org/2000/svg"
   xmlns="http://www.w3.org/2000/svg"
   xmlns:xlink="http://www.w3.org/1999/xlink"
   id="svg654"
   viewBox="0 0 1139.14 1139.14"
   style="shape-rendering:geometricPrecision; text-rendering:geometricPrecision; image-rendering:optimizeQuality; fill-rule:evenodd; clip-rule:evenodd"
   version="1.1"
   height="113px"
   width="113px"
   xml:space="preserve"><metadata
   id="metadata658"><rdf:RDF><cc:Work
       rdf:about=""><dc:format>image/svg+xml</dc:format><dc:type
         rdf:resource="http://purl.org/dc/dcmitype/StillImage" /><dc:title></dc:title></cc:Work></rdf:RDF></metadata>
 <defs
   id="defs553">
  <style
   id="style538"
   type="text/css">
   <![CDATA[
    .str0 {stroke:#D8654B;stroke-width:80.43;stroke-miterlimit:22.9256}
    .str1 {stroke:#EBEDB3;stroke-width:150.81;stroke-miterlimit:22.9256}
    .fil3 {fill:none}
    .fil2 {fill:#0B0065}
    .fil1 {fill:#5890BC}
    .fil5 {fill:#89455B}
    .fil0 {fill:#CCCCCC}
    .fil4 {fill:#D8654B;fill-rule:nonzero}
   ]]>
  </style>
   <clipPath
   id="id0">
    <path
   id="path540"
   d="M0 0l1139.14 0 0 1139.14 -1139.14 0 0 -1139.14z" />
   </clipPath>
    <clipPath
   id="id1">
     <path
   id="path543"
   d="M0 0l1139.14 0 0 1139.14 -1139.14 0 0 -1139.14z" />
    </clipPath>
    <clipPath
   id="id2">
     <path
   id="path546"
   d="M0 0l1139.14 0 0 1139.14 -1139.14 0 0 -1139.14z" />
    </clipPath>
    <clipPath
   id="id3">
    </clipPath>
    <clipPath
   id="id4">
     <path
   id="path550"
   d="M0 0l1139.14 0 0 1139.14 -1139.14 0 0 -1139.14z" />
    </clipPath>
 </defs>
 <g
   id="Capa_x0020_1">
  <metadata
   id="CorelCorpID_0Corel-Layer" />
  <polygon
   id="polygon556"
   points="0,0 1139.14,0 1139.14,1139.14 0,1139.14 "
   class="fil0" />
  <g
   id="g649"
   clip-path="url(#id0)"
   style="clip-path:url(#id0)">
   <g
   id="_1440062484144">
   </g>
   <g
   id="g561"
   clip-path="url(#id1)"
   style="clip-path:url(#id1)">
    <image
   xlink:href="4_Images%5C4_ImgID1.jpg"
   x="-197.37"
   y="-197.37"
   width="1533.88"
   height="1533.88"
   id="image559" />
   </g>
   <g
   id="g601"
   clip-path="url(#id2)"
   style="clip-path:url(#id2)">
    <polygon
   id="polygon563"
   points="-676.71,-1087.73 -580.54,-1103.41 -481.37,-212.99 -450.5,-1108.7 -353.46,-1099.99 -478.83,-212.85 -226.2,-1072.76 -134.39,-1040.19 -476.43,-212.09 -17.88,-982.17 62.95,-927.77 -474.28,-210.79 161.38,-842.61 226.13,-769.83 -472.53,-208.95 300.28,-662.86 344.91,-576.25 -471.3,-206.76 390.12,-454.2 411.82,-359.21 -470.63,-204.33 425.25,-229.78 422.63,-132.37 -470.61,-201.8 403.47,-3.66 376.71,90.03 -471.2,-199.34 326.14,209.93 276.92,294.04 -472.39,-197.11 198.11,397.6 129.53,466.81 -474.1,-195.26 27.43,547.53 -56.19,597.5 -476.22,-193.89 -175.16,650.28 -268.61,677.91 -478.6,-193.07 -396.95,699.45 -494.31,702.95 -481.13,-192.91 -623.98,691.91 -719.17,671.09 -483.62,-193.33 -842.03,628.13 -929.04,584.31 -485.9,-194.38 -1037.37,512.13 -1110.72,448.05 -487.87,-195.96 -1197.7,351.21 -1252.83,270.87 -489.39,-198 -1312.98,155.48 -1346.39,63.95 -490.32,-200.33 -1375.95,-62.78 -1385.58,-159.74 -490.66,-202.83 -1382.69,-289.85 -1367.9,-386.15 -490.39,-205.33 -1332.74,-511.46 -1294.45,-601.06 -489.5,-207.7 -1229.24,-713.68 -1169.89,-790.94 -488.02,-209.76 -1078.7,-883.81 -1001.99,-943.89 -486.09,-211.37 -890.58,-1011.17 -801.34,-1050.28 -483.84,-212.5 "
   class="fil1" />
    <rect
   id="rect565"
   height="1533.88"
   width="1533.88"
   y="-197.37"
   x="-197.37"
   class="fil2" />
    <polygon
   id="polygon567"
   points="847.06,479.86 943.22,464.17 1042.4,1354.6 1073.26,458.89 1170.3,467.59 1044.94,1354.73 1297.56,494.82 1389.38,527.39 1047.34,1355.49 1505.88,585.41 1586.71,639.81 1049.49,1356.8 1685.14,724.98 1749.9,797.76 1051.23,1358.64 1824.04,904.72 1868.68,991.34 1052.47,1360.82 1913.89,1113.39 1935.58,1208.37 1053.13,1363.26 1949.01,1337.81 1946.4,1435.22 1053.16,1365.78 1927.23,1563.93 1900.48,1657.62 1052.56,1368.24 1849.91,1777.52 1800.69,1861.63 1051.38,1370.48 1721.87,1965.19 1653.3,2034.39 1049.67,1372.33 1551.2,2115.12 1467.58,2165.09 1047.54,1373.69 1348.6,2217.87 1255.16,2245.49 1045.17,1374.51 1126.82,2267.03 1029.46,2270.53 1042.64,1374.68 899.78,2259.49 804.6,2238.67 1040.14,1374.25 681.74,2195.71 594.72,2151.89 1037.86,1373.21 486.4,2079.72 413.05,2015.63 1035.89,1371.63 326.07,1918.79 270.93,1838.46 1034.37,1369.58 210.79,1723.06 177.37,1631.53 1033.45,1367.26 147.82,1504.8 138.19,1407.85 1033.1,1364.75 141.07,1277.73 155.87,1181.43 1033.38,1362.26 191.03,1056.13 229.31,966.52 1034.27,1359.88 294.53,853.9 353.88,776.66 1035.75,1357.83 445.07,683.77 521.78,623.7 1037.67,1356.21 633.18,556.41 722.42,517.3 1039.93,1355.09 "
   class="fil1" />
    <polygon
   id="polygon569"
   points="857.47,-1069.51 953.64,-1085.2 1052.81,-194.77 1083.68,-1090.48 1180.72,-1081.78 1055.36,-194.64 1307.98,-1054.55 1399.79,-1021.98 1057.75,-193.88 1516.3,-963.96 1597.13,-909.56 1059.9,-192.57 1695.56,-824.39 1760.31,-751.61 1061.65,-190.73 1834.46,-644.64 1879.09,-558.03 1062.88,-188.55 1924.3,-435.98 1946,-340.99 1063.55,-186.11 1959.43,-211.56 1956.81,-114.15 1063.57,-183.58 1937.65,14.56 1910.89,108.25 1062.98,-181.13 1860.32,228.15 1811.1,312.26 1061.79,-178.89 1732.29,415.82 1663.71,485.02 1060.08,-177.04 1561.61,565.75 1477.99,615.72 1057.96,-175.67 1359.02,668.5 1265.57,696.12 1055.58,-174.86 1137.23,717.66 1039.87,721.16 1053.05,-174.69 910.2,710.12 815.01,689.3 1050.56,-175.12 692.15,646.34 605.14,602.52 1048.28,-176.16 496.82,530.35 423.47,466.26 1046.31,-177.74 336.48,369.42 281.35,289.09 1044.79,-179.78 221.2,173.69 187.79,82.16 1043.86,-182.11 158.23,-44.57 148.6,-141.52 1043.52,-184.62 151.49,-271.63 166.28,-367.94 1043.79,-187.11 201.44,-493.24 239.73,-582.85 1044.68,-189.49 304.94,-695.47 364.29,-772.72 1046.16,-191.54 455.48,-865.6 532.19,-925.67 1048.09,-193.15 643.6,-992.95 732.84,-1032.07 1050.34,-194.28 "
   class="fil1" />
    <polygon
   id="polygon571"
   points="-694.39,444.12 -598.23,428.43 -499.05,1318.86 -468.19,423.14 -371.14,431.85 -496.51,1318.99 -243.88,459.08 -152.07,491.65 -494.11,1319.75 -35.56,549.67 45.27,604.07 -491.96,1321.05 143.7,689.23 208.45,762.01 -490.21,1322.89 282.59,868.98 327.23,955.6 -488.98,1325.08 372.44,1077.64 394.13,1172.63 -488.31,1327.51 407.56,1302.06 404.95,1399.47 -488.29,1330.04 385.79,1528.18 359.03,1621.88 -488.88,1332.5 308.46,1741.77 259.24,1825.88 -490.07,1334.73 180.42,1929.44 111.85,1998.65 -491.78,1336.58 9.75,2079.37 -73.87,2129.34 -493.91,1337.95 -192.85,2182.13 -286.29,2209.75 -496.28,1338.77 -414.63,2231.29 -511.99,2234.79 -498.81,1338.94 -641.66,2223.75 -736.85,2202.93 -501.3,1338.51 -859.71,2159.97 -946.73,2116.15 -503.58,1337.46 -1055.05,2043.97 -1128.4,1979.89 -505.56,1335.88 -1215.38,1883.05 -1270.51,1802.72 -507.08,1333.84 -1330.66,1687.32 -1364.07,1595.79 -508,1331.51 -1393.63,1469.06 -1403.26,1372.1 -508.35,1329.01 -1400.38,1241.99 -1385.58,1145.69 -508.07,1326.52 -1350.42,1020.38 -1312.13,930.78 -507.18,1324.14 -1246.92,818.16 -1187.57,740.91 -505.7,1322.09 -1096.38,648.03 -1019.68,587.95 -503.77,1320.47 -908.26,520.67 -819.02,481.56 -501.52,1319.34 "
   class="fil1" />
    <polygon
   id="polygon573"
   points="-593.84,876.77 -466.75,882.87 -458.6,-169.48 -326.47,877.39 -201.83,851.69 -455.63,-169.63 -67.31,811.5 47,755.6 -452.83,-170.52 167.29,683.21 264.14,600.65 -450.31,-172.05 362.64,500.6 435.9,396.57 -448.26,-174.2 506.43,275.17 551.52,156.18 -446.82,-176.77 589.65,21.04 603.72,-105.44 -446.04,-179.62 607.06,-245.76 589.24,-371.76 -446.02,-182.57 557.54,-508.56 508.94,-626.15 -446.7,-185.46 444.27,-750.77 367.94,-852.58 -448.09,-188.07 274.28,-957.18 175.03,-1036.83 -450.1,-190.23 58.34,-1114.84 -57.6,-1167.3 -452.59,-191.85 -190.08,-1213.85 -315.4,-1235.82 -455.37,-192.8 -455.27,-1247.98 -582.14,-1238.1 -458.33,-193 -720.65,-1215.06 -841.06,-1173.95 -461.25,-192.5 -969.49,-1117.21 -1075.89,-1047.41 -463.92,-191.27 -1186.16,-960.52 -1271.89,-866.49 -466.24,-189.43 -1357.08,-754.9 -1416.73,-642.49 -468.01,-187.03 -1471.48,-513.2 -1501.3,-389.49 -469.1,-184.31 -1522.2,-250.66 -1520.3,-123.44 -469.5,-181.36 -1506.01,16.23 -1472.55,139.01 -469.18,-178.45 -1423.98,270.73 -1361.02,381.33 -468.14,-175.67 -1281.22,496.83 -1192.73,588.29 -466.39,-173.26 -1086.72,680.33 -978.28,746.91 -464.15,-171.36 -852.69,809.68 -731.12,847.2 -461.51,-170.06 "
   class="fil2" />
    <g
   id="g599">
     <path
   id="path575"
   d="M-237.49 941.37c779.7,111.67 1328.17,161.76 1633.12,286.86"
   class="fil3 str0" />
     <line
   id="line577"
   y2="958.98"
   x2="215.46"
   y1="-47.56"
   x1="-229.94"
   class="fil3 str0" />
     <path
   id="path579"
   d="M-136.83 1356.57c486.98,-288.43 982.51,-511.33 1509.81,-490.7"
   class="fil3 str0" />
     <path
   id="path581"
   d="M1380.53 692.25c-616.3,-10.62 -1139.78,264.71 -1602.79,640.06l-50.59 -62.2c479.55,-388.76 1022.3,-670.35 1653.38,-577.86z"
   class="fil4" />
     <path
   id="path583"
   d="M223.01 1381.73c345.81,-189.66 709.23,-339.89 1142.42,-334.68"
   class="fil3 str0" />
     <path
   id="path585"
   d="M-272.72 173.88c201.71,-150.68 426.57,-295.56 681.94,-432.82"
   class="fil3 str0" />
     <path
   id="path587"
   d="M-237.99 290.42c518.01,-4.86 944.75,-204.58 1421.33,-547.69l46.81 65.03c-372.81,268.4 -946.52,566.06 -1468.14,482.66z"
   class="fil4" />
     <line
   id="line589"
   y2="536.82"
   x2="1005.17"
   y1="344.18"
   x1="-282.8"
   class="fil3 str0" />
     <path
   id="path591"
   d="M-267.11 439.09c559.99,43.53 1022.75,-125.34 1448.25,-479.59l51.21 61.58c-443.25,369.04 -928.49,544.47 -1499.46,418.01z"
   class="fil4" />
     <line
   id="line593"
   y2="-218.04"
   x2="1054.44"
   y1="868.33"
   x1="183.11"
   class="fil3 str0" />
     <line
   id="line595"
   y2="548.02"
   x2="1067.88"
   y1="-231.49"
   x1="725.18"
   class="fil3 str0" />
     <path
   id="path597"
   d="M1383.72 91.07c-271.47,232.69 -620.17,441.99 -963.38,540.37l-21.99 -77.28c334.27,-95.83 676.61,-301.86 985.37,-463.09z"
   class="fil4" />
    </g>
   </g>
   <g
   id="g605"
   clip-path="url(#id3)"
   style="clip-path:url(#id3)">
    <image
   xlink:href="4_Images%5C4_ImgID2.jpg"
   x="2457.5"
   y="479.44"
   width="1533.88"
   height="1533.88"
   id="image603" />
   </g>
   <g
   id="g647"
   clip-path="url(#id4)"
   style="clip-path:url(#id4)">
    <g
   id="g637">
     <circle
   id="circle607"
   r="51.88"
   cy="91.99"
   cx="113.64"
   class="fil5" />
     <circle
   id="circle609"
   r="51.88"
   cy="-88.37"
   cx="348.36"
   class="fil5" />
     <circle
   id="circle611"
   r="51.88"
   cy="-132.84"
   cx="560.84"
   class="fil5" />
     <circle
   id="circle613"
   r="51.88"
   cy="208.13"
   cx="553.43"
   class="fil5" />
     <circle
   id="circle615"
   r="51.88"
   cy="600.98"
   cx="291.54"
   class="fil5" />
     <circle
   id="circle617"
   r="51.88"
   cy="823.35"
   cx="-46.96"
   class="fil5" />
     <circle
   id="circle619"
   r="51.88"
   cy="1122.32"
   cx="153.17"
   class="fil5" />
     <circle
   id="circle621"
   r="51.88"
   cy="979.01"
   cx="686.86"
   class="fil5" />
     <circle
   id="circle623"
   r="51.88"
   cy="890.06"
   cx="306.36"
   class="fil5" />
     <circle
   id="circle625"
   r="51.88"
   cy="652.86"
   cx="760.98"
   class="fil5" />
     <circle
   id="circle627"
   r="51.88"
   cy="215.54"
   cx="867.22"
   class="fil5" />
     <circle
   id="circle629"
   r="51.88"
   cy="371.19"
   cx="1250.2"
   class="fil5" />
     <circle
   id="circle631"
   r="51.88"
   cy="-113.07"
   cx="879.57"
   class="fil5" />
     <circle
   id="circle633"
   r="51.88"
   cy="1038.3"
   cx="1027.83"
   class="fil5" />
     <circle
   id="circle635"
   r="51.88"
   cy="1221.15"
   cx="864.75"
   class="fil5" />
    </g>
    <g
   id="g645">
     <path
   id="path639"
   d="M-250.57 516.63c460.24,132.34 793.06,357.08 1007.55,679.99"
   class="fil3 str1" />
     <path
   id="path641"
   d="M-240.2 1275.39c445.89,-561.61 990.8,-842.56 1668.87,-746.32"
   class="fil3 str1" />
     <path
   id="path643"
   d="M1341.61 -345.79c-378.97,576.42 -355.63,1251.39 39.37,1755.94"
   class="fil3 str1" />
    </g>
   </g>
  </g>
  <polygon
   id="polygon651"
   points="0,0 1139.14,0 1139.14,1139.14 0,1139.14 "
   class="fil3" />
 </g>
</svg>
